<svg width="32" height="33" viewBox="0 0 32 33" fill="none" xmlns="http://www.w3.org/2000/svg">
<path d="M25.0417 17.8333H17.3333V25.5417C17.3333 25.9505 17.1709 26.3427 16.8818 26.6318C16.5927 26.9209 16.2005 27.0833 15.7917 27.0833C15.3828 27.0833 14.9907 26.9209 14.7015 26.6318C14.4124 26.3427 14.25 25.9505 14.25 25.5417V17.8333H6.54167C6.13279 17.8333 5.74066 17.6709 5.45154 17.3818C5.16243 17.0927 5 16.7005 5 16.2917C5 15.8828 5.16243 15.4907 5.45154 15.2015C5.74066 14.9124 6.13279 14.75 6.54167 14.75H14.25V7.04167C14.25 6.63279 14.4124 6.24066 14.7015 5.95154C14.9907 5.66242 15.3828 5.5 15.7917 5.5C16.2005 5.5 16.5927 5.66242 16.8818 5.95154C17.1709 6.24066 17.3333 6.63279 17.3333 7.04167V14.75H25.0417C25.4505 14.75 25.8427 14.9124 26.1318 15.2015C26.4209 15.4907 26.5833 15.8828 26.5833 16.2917C26.5833 16.7005 26.4209 17.0927 26.1318 17.3818C25.8427 17.6709 25.4505 17.8333 25.0417 17.8333Z" fill="black"/>
</svg>
