<svg width="60" height="60" viewBox="0 0 60 60" fill="none" xmlns="http://www.w3.org/2000/svg">
<rect width="60" height="60" rx="30" fill="#DDECFF"/>
<path fill-rule="evenodd" clip-rule="evenodd" d="M36.953 17.456C37.0583 17.2937 37.2115 17.1649 37.3931 17.0861C37.5747 17.0072 37.7766 16.9818 37.9733 17.013L43.1576 17.8429C43.4212 17.8851 43.6566 18.026 43.812 18.2346C43.9674 18.4432 44.0301 18.7024 43.9864 18.9554L43.1234 23.9314C43.0904 24.1201 43 24.2951 42.8634 24.4344C42.7268 24.5737 42.5502 24.671 42.356 24.7141C42.1618 24.7572 41.9586 24.744 41.7722 24.6763C41.5857 24.6087 41.4244 24.4895 41.3085 24.3338L39.9091 22.4572L32.7023 26.876C32.3949 27.0647 32.0269 27.1404 31.6659 27.0892C31.305 27.038 30.9755 26.8634 30.7382 26.5974L26.7194 22.0896L19.204 25.7945C18.8473 25.9705 18.4324 26.0034 18.0504 25.8858C17.6685 25.7683 17.3509 25.5099 17.1674 25.1677C16.984 24.8254 16.9498 24.4273 17.0723 24.0608C17.1948 23.6944 17.464 23.3896 17.8208 23.2137L26.4008 18.9825C26.7037 18.8332 27.0503 18.7863 27.3844 18.8495C27.7186 18.9127 28.0207 19.0823 28.2418 19.3307L32.182 23.7515L38.1508 20.0911L36.9873 18.5298C36.8716 18.3741 36.8066 18.189 36.8005 17.9979C36.7944 17.8068 36.8474 17.6182 36.953 17.456ZM23.7532 26.9553L17.9014 30.1669C17.6702 30.2936 17.478 30.4766 17.3442 30.6974C17.2103 30.9183 17.1396 31.1691 17.1392 31.4245V42.549C17.1392 43.3499 17.8167 44 18.6515 44H23.7532V26.9553ZM26.2738 44H33.6702V30.8209L30.345 32.4151L27.0219 26.8354C26.8541 26.5516 26.5911 26.3307 26.2758 26.2086L26.2738 44ZM41.8409 44H36.1908V29.6117L41.1654 27.2243C41.3959 27.1138 41.6521 27.0618 41.9095 27.073C42.167 27.0842 42.4172 27.1584 42.6363 27.2884C42.8555 27.4185 43.0364 27.6001 43.1619 27.8161C43.2874 28.032 43.3532 28.2752 43.3532 28.5225V42.549C43.3532 42.9338 43.1939 43.3029 42.9103 43.575C42.6267 43.8471 42.242 44 41.8409 44Z" fill="#1B3353"/>
</svg>
