<svg width="60" height="60" viewBox="0 0 60 60" fill="none" xmlns="http://www.w3.org/2000/svg">
<rect width="60" height="60" rx="30" fill="#DDECFF"/>
<path d="M30 38.3333C30.4722 38.3333 30.8683 38.1733 31.1883 37.8533C31.5083 37.5333 31.6678 37.1378 31.6667 36.6667C31.6656 36.1956 31.5056 35.8 31.1867 35.48C30.8678 35.16 30.4722 35 30 35C29.5278 35 29.1322 35.16 28.8133 35.48C28.4944 35.8 28.3344 36.1956 28.3333 36.6667C28.3322 37.1378 28.4922 37.5339 28.8133 37.855C29.1344 38.1761 29.53 38.3356 30 38.3333ZM28.3333 31.6667H31.6667V21.6667H28.3333V31.6667ZM23.75 45L15 36.25V23.75L23.75 15H36.25L45 23.75V36.25L36.25 45H23.75Z" fill="#1B3353"/>
</svg>
