<svg width="60" height="60" viewBox="0 0 60 60" fill="none" xmlns="http://www.w3.org/2000/svg">
<rect width="60" height="60" rx="30" fill="#DDECFF"/>
<path d="M34.685 17.5834H29.6553C27.3767 17.5834 25.571 17.5834 24.1592 17.7745C22.7048 17.9709 21.5281 18.3842 20.6007 19.3155C19.672 20.2468 19.2599 21.4287 19.0649 22.8882C18.875 24.3065 18.875 26.1187 18.875 28.4062V35.947C18.875 37.8948 20.0633 39.5637 21.7515 40.2637C21.665 39.0883 21.665 37.4415 21.665 36.0697V29.5985C21.665 27.9438 21.665 26.5165 21.8174 25.3747C21.9815 24.1502 22.3509 22.9774 23.299 22.0254C24.247 21.0735 25.416 20.7027 26.6353 20.5374C27.772 20.385 29.1928 20.385 30.8423 20.385H34.8077C36.4559 20.385 37.8741 20.385 39.0121 20.5374C38.6711 19.6673 38.0759 18.9201 37.304 18.3932C36.5322 17.8663 35.6195 17.5841 34.685 17.5834Z" fill="#1B3353"/>
<path d="M23.525 29.7212C23.525 26.2001 23.525 24.4395 24.6152 23.3455C25.704 22.2515 27.4568 22.2515 30.965 22.2515H34.685C38.1919 22.2515 39.946 22.2515 41.0361 23.3455C42.125 24.4395 42.125 26.2001 42.125 29.7212V35.947C42.125 39.4681 42.125 41.2286 41.0361 42.3227C39.946 43.4167 38.1919 43.4167 34.685 43.4167H30.965C27.4581 43.4167 25.704 43.4167 24.6152 42.3227C23.525 41.2286 23.525 39.4681 23.525 35.947V29.7212Z" fill="#1B3353"/>
</svg>
